# xmcd
#
# Track frame offsets:
#	182
#	14902
#	30975
#	55115
#	78787
#	104810
#	130667
#	155370
#
# Disc length: 2301 seconds
#
# Revision: 2
# Processed by: cddbd v1.5.2PL0 Copyright (c) Steve Scherf et al.
# Submitted via: EZCDAudioConverter 8.3.2.1
#
DISCID=5c08fb08
DTITLE=Emjay - The Sound Of My Heartbeat [CDM Plus)
DYEAR=1994
DGENRE=Dance
TTITLE0=The Sound Of My Heartbeat (Radio Mix)
TTITLE1=The Sound Of My Heartbeat (Radio Premier)
TTITLE2=The Sound Of My Heartbeat (Boom Mix)
TTITLE3=The Sound Of My Heartbeat (Club Mix)
TTITLE4=The Sound Of My Heartbeat (Amara Mio Remix)
TTITLE5=The Sound Of My Heartbeat (Euro Beat Mix)
TTITLE6=The Sound Of My Heartbeat (Vibe Mix)
TTITLE7=The Sound Of My Heartbeat (Amarapella)
EXTD=
EXTT0=
EXTT1=
EXTT2=
EXTT3=
EXTT4=
EXTT5=
EXTT6=
EXTT7=
PLAYORDER=
